<svg width="200" height="60" viewBox="0 0 200 60" xmlns="http://www.w3.org/2000/svg">
    <!-- 플라스크 -->
    <g transform="translate(20, 10)">
        <path d="M20 5 L15 15 L10 25 L10 30 C10 35 15 40 25 40 C35 40 40 35 40 30 L40 25 L35 15 L30 5 Z" 
              fill="none" stroke="#1E40AF" stroke-width="2.5"/>
        <!-- 플라스크 입구 -->
        <rect x="20" y="0" width="10" height="8" fill="#1E40AF" rx="1"/>
        <!-- 액체 -->
        <path d="M17 20 L13 25 L13 30 C13 33 17 36 25 36 C33 36 37 33 37 30 L37 25 L33 20 Z" 
              fill="#10B981" opacity="0.3"/>
        <!-- 방울 -->
        <circle cx="22" cy="25" r="2" fill="#10B981"/>
        <circle cx="28" cy="28" r="1.5" fill="#10B981"/>
        
        <!-- 브러시 -->
        <g transform="rotate(45 25 25)">
            <rect x="35" y="23" width="15" height="4" fill="#FCD34D" rx="2"/>
            <rect x="33" y="22" width="4" height="6" fill="#F59E0B" rx="1"/>
        </g>
    </g>
    
    <!-- 텍스트 -->
    <text x="70" y="35" font-family="Noto Sans KR, sans-serif" font-weight="700" font-size="24" fill="#1E40AF">청소공작소</text>
    <text x="70" y="48" font-family="Arial, sans-serif" font-weight="300" font-size="10" fill="#6B7280" letter-spacing="2">CLEANING LABORATORY</text>
</svg>